<?xml version="1.0" encoding="utf-8"?>
<svg version="1.1" xmlns="http://www.w3.org/2000/svg" width="210mm" height="297mm" viewBox="0 0 131.745 125.085">
  <path d="M 27.59366 46.33406 C 27.87307 46.19649 27.24142 44.83529 28.33408 43.74268 C 28.57388 43.5029 28.74317 43.02123 30.25923 42.33592 C 31.49153 41.77888 32.27678 41.59755 32.7767 41.52148 C 32.78524 41.52018 32.70604 41.48102 33.73926 41.3734 C 33.75582 41.37167 35.57418 41.09533 35.59082 41.09533 L 46.62339 40.78116 L 81.86746 40.78089 C 84.72106 40.78089 95.62836 40.97796 96.13326 41.02789 C 97.29124 41.14244 99.75935 40.96982 102.9453 42.06445 C 104.1992 42.4953 104.8891 43.13405 105.3392 43.5946 C 106.8336 45.12321 105.7302 46.13073 106.2278 46.33406 C 106.4743 46.43479 108.5457 44.6792 108.375 42.63208 C 108.3246 42.02716 108.1996 41.28135 106.524 38.63393 C 105.774 37.44881 103.8832 35.47758 103.8585 35.45022 C 101.9728 33.36597 99.53996 31.71532 99.11966 31.45207 C 94.90325 28.81164 94.31496 29.00893 92.99876 29.72447 C 92.96986 29.74019 91.94516 30.62396 89.29655 29.72447 C 88.89915 29.58953 87.77737 29.23058 86.38417 28.26836 C 85.22537 27.46799 83.98496 26.33817 83.96547 26.31865 C 82.17247 24.52573 82.33315 24.09717 82.38585 23.52982 C 82.45715 22.76118 82.42554 19.47228 84.08885 16.49604 C 84.69515 15.41108 84.84185 15.14185 85.86586 13.90465 C 87.46595 11.97134 88.63275 12.88421 88.75356 12.42385 C 88.83585 12.10995 86.64297 9.543726 83.22498 9.881816 C 80.33457 10.16772 79.19246 12.19669 78.56026 13.21361 C 77.89487 14.28388 77.04337 15.90105 73.84618 16.57008 C 70.28307 17.31567 68.82156 16.10116 66.86139 16.10116 C 64.69273 16.10116 62.34813 17.87132 57.82807 15.87904 C 56.02733 15.08535 55.19332 13.01073 54.47143 12.05365 C 52.88382 9.948792 50.66175 9.881816 49.53521 9.881816 C 48.39839 9.881816 47.5913 10.29053 46.84497 10.69625 C 45.66559 11.33739 44.96556 12.24031 44.96918 12.37449 C 44.99295 13.25488 45.92225 11.26167 48.44923 14.59569 C 48.92218 15.21968 51.33691 18.09056 51.33691 23.40642 C 51.33691 24.02801 51.93697 24.45897 49.06626 26.985 C 47.53271 28.33442 46.08179 29.11651 45.56153 29.3296 C 44.10232 29.92726 42.06302 30.55412 40.84744 29.72447 C 39.02744 28.48232 36.21252 30.2568 32.97416 32.66138 C 29.78521 35.02927 27.40119 38.47915 27.27281 38.65862 C 26.90822 39.16825 25.44407 41.42334 25.42171 42.65677 C 25.37804 45.06699 27.42337 46.41792 27.59366 46.33406 Z M 44.37683 13.26297 C 41.69954 13.81963 39.31842 18.21249 38.97167 20.51887 C 38.08131 26.44106 40.83985 29.07742 42.92064 28.86067 C 47.3493 28.39937 48.30857 21.60983 48.32584 21.53075 C 49.17736 17.63192 47.48677 12.61635 44.37683 13.26297 Z M 88.58076 13.26297 C 86.13636 13.61628 85.43845 16.7491 85.27345 18.39639 C 85.13745 19.75491 85.32697 22.66215 86.65567 25.4055 C 87.39497 26.93194 89.07815 29.1654 91.56715 28.78664 C 92.49805 28.64499 93.92765 27.76197 94.60295 25.45485 C 95.15095 23.58269 95.03815 21.70372 94.60295 19.82783 C 94.07866 17.56757 92.88286 16.1248 92.48045 15.58288 C 91.37426 14.09337 89.95805 13.06391 88.58076 13.26297 Z M 72.61208 27.18245 C 72.84148 26.76361 74.48245 27.1797 75.32695 27.65137 C 76.74817 28.44503 77.05096 29.21838 76.88196 29.5764 C 76.75806 29.83871 75.43046 29.86589 74.06825 29.2062 C 73.45984 28.91158 72.21818 27.90163 72.61208 27.18245 Z M 56.91487 29.47767 C 56.63395 28.7128 58.09116 27.94206 58.51914 27.67603 C 59.58712 27.01218 61.05046 27.06849 61.1847 27.28117 C 61.62498 27.97869 60.07735 28.99487 59.6298 29.2062 C 57.71086 30.11232 56.98175 29.6598 56.91487 29.47767 Z M 15.45053 79.72603 C 15.98845 79.8703 15.7089 76.77126 17.52375 72.17397 C 17.76303 71.56781 18.53482 70.0097 19.15271 68.99025 C 19.66157 68.15067 19.72394 67.90211 21.15188 66.17674 C 21.77167 65.42784 23.8097 63.32129 26.40897 61.80838 C 27.02608 61.4492 27.01293 61.27493 29.37071 59.95739 C 30.91742 59.09307 32.33353 58.38483 32.7767 58.62468 C 32.80036 58.63748 32.63626 58.54379 34.52906 61.09267 C 34.73593 61.37122 36.12799 63.11212 36.40483 63.43726 C 37.48944 64.71107 40.3639 67.14317 40.82275 67.4601 C 44.32116 69.87627 44.85218 69.9866 46.15389 70.56976 C 46.18011 70.5815 46.34537 70.83376 49.14029 71.80376 C 49.50894 71.93171 52.20144 72.82986 52.39823 72.69225 C 52.94049 72.31298 51.4113 72.58118 47.23986 70.74253 C 45.04796 69.77639 42.91755 68.364 42.57515 68.15114 C 41.06406 67.21185 37.81152 64.6573 35.14609 61.06799 C 31.98024 56.80481 31.13042 53.44526 30.40731 51.29474 C 30.39521 51.25874 29.74091 48.84045 29.74092 47.07446 C 29.74093 45.43736 30.34584 44.61747 31.36988 43.89075 C 33.74733 42.20359 34.966 43.02477 34.77587 42.484 C 34.53763 41.80639 30.53461 43.13889 29.19794 44.65583 C 28.43129 45.52587 28.46432 46.49508 29.00048 49.07354 C 30.08083 54.269 31.9252 56.69457 31.71542 57.09451 C 31.61489 57.28616 29.32628 58.07378 27.4209 59.38976 C 23.67517 61.97676 22.41174 63.10416 20.55954 65.55974 C 19.90011 66.43398 17.98055 69.63655 17.05481 71.90248 C 16.30059 73.7486 15.95127 75.64426 15.94416 75.67851 C 15.43501 78.127 15.20546 79.66031 15.45053 79.72603 Z M 81.25046 72.56885 C 81.28666 72.88819 84.72816 71.86899 85.64375 71.50761 C 86.82706 71.04054 89.20217 69.79443 89.49397 69.65661 C 90.88308 69.0007 92.87015 67.4558 92.89996 67.43542 C 93.02847 67.34774 92.83727 67.57668 94.52898 66.17674 C 95.21796 65.60657 95.99724 64.85655 96.00975 64.84402 C 97.47496 63.37897 97.33125 63.37686 97.34254 63.36322 C 97.36514 63.33594 97.34306 63.49226 98.67535 61.88243 C 98.69815 61.85484 99.83725 60.28114 99.86005 60.25355 C 101.1158 58.73637 100.8353 58.70354 101.0448 58.62468 C 101.5818 58.42239 102.3759 58.65983 107.4618 61.83307 C 108.9296 62.74886 110.9436 64.17289 112.6697 66.25076 C 114.563 68.53001 114.8622 69.14536 116.2731 72.27269 C 116.9273 73.72271 117.3997 75.91687 117.4084 75.95 C 118.224 79.10219 117.87 79.76224 118.371 79.72603 C 118.7122 79.70135 117.6992 74.90202 117.5072 74.29644 C 117.0027 72.70597 117.5579 73.56004 115.6314 69.58256 C 114.978 68.23386 113.5867 66.0555 113.1879 65.51037 C 110.9767 62.4876 108.4133 60.87376 108.1777 60.67311 C 105.7924 58.64243 102.2012 57.35612 102.0814 56.99579 C 101.9761 56.67913 103.2325 54.80291 104.3027 51.14664 C 105.0885 48.46198 105.1128 46.59741 105.1172 46.5562 C 105.256 45.22266 104.8643 44.65814 102.9946 43.49588 C 101.6385 42.65289 99.17744 41.9875 99.04553 42.45932 C 98.90854 42.94953 100.6057 42.46612 102.4516 43.89075 C 104.1555 45.20582 104.0559 46.62087 104.0559 47.09916 C 104.0559 48.43001 103.7258 49.9803 103.3401 51.19602 C 102.1847 54.83883 102.1769 55.86977 98.65077 61.01863 C 97.77167 62.30221 96.00127 64.28001 93.98598 66.05334 C 92.48207 67.37666 90.81837 68.48551 88.23526 69.9281 C 88.20686 69.94394 85.94218 71.02665 84.87868 71.38421 C 84.64307 71.4634 85.00857 71.36762 83.05226 72.00121 C 81.27106 72.57807 81.23155 72.40201 81.25046 72.56885 Z" fill-opacity="1" stroke-opacity="1" stroke-width="0.1" stroke-linecap="round" stroke-linejoin="round" style="fill: rgb(181, 179, 179); stroke: rgb(181, 179, 179);"/>
  <path d="M 112.2746 47.39534 C 109.0218 47.86546 107.9599 50.21048 107.7826 50.52969 C 106.799 52.30052 106.9681 54.51811 108.2762 56.4282 C 108.9387 57.39563 110.8045 58.97015 113.41 58.69875 C 116.5229 58.37448 117.7796 56.05703 118.0006 55.58909 C 119.4112 52.60214 117.8782 50.19473 117.4823 49.66589 C 115.8934 47.5437 113.3991 47.23281 112.2746 47.39534 Z M 112.398 48.11106 C 113.5101 47.92554 117.4363 48.64465 117.8278 52.60282 C 117.9677 54.016 117.2461 55.31976 117.2355 55.34229 C 116.0841 57.78025 113.6663 57.91976 113.3112 57.93367 C 112.5236 57.96457 110.3836 58.04831 108.8192 55.90992 C 107.6719 54.34163 107.7909 52.23722 108.4984 50.77649 C 109.5325 48.64154 111.8596 48.20087 112.398 48.11106 Z M 110.5962 56.62563 C 110.6758 56.67229 111.6825 56.78017 111.781 56.32948 C 111.9185 55.69937 111.6506 53.4982 111.781 53.36788 C 111.8101 53.33886 113.0565 53.39317 113.3112 53.54066 C 113.3871 53.58465 113.4806 53.63085 113.5334 53.68872 C 113.7482 53.92434 113.8967 55.22161 114.0023 55.81121 C 114.1032 56.37536 114.2077 56.54676 114.4465 56.62563 C 114.4566 56.62894 115.57 56.66241 115.6312 56.55159 C 115.7393 56.35585 115.4974 56.57326 115.3351 55.14484 C 115.0705 52.81474 114.1724 53.35332 114.3725 52.84961 C 114.3804 52.82954 114.8624 52.88925 115.3351 52.10921 C 115.3394 52.10208 115.6684 51.82312 115.6312 51.22074 C 115.581 50.40849 114.9013 49.83047 114.8415 49.7893 C 114.0812 49.26647 110.7201 49.33167 110.5222 49.56718 C 110.372 49.74599 110.4236 50.04956 110.4236 53.31853 C 110.4236 56.07085 110.444 56.53631 110.5962 56.62563 Z M 114.2738 51.86241 C 114.0854 52.26145 113.2866 52.21205 113.089 52.23261 C 112.8054 52.26216 111.7794 52.40005 111.7794 52.20794 L 111.7844 50.40625 C 111.7854 50.38873 113.2405 50.35356 113.7554 50.52969 C 114.5492 50.80119 114.3605 51.67851 114.2738 51.86241 Z" fill-opacity="1" stroke-opacity="1" stroke-width="0.1" stroke-linecap="round" stroke-linejoin="round" style="stroke: rgb(181, 179, 179); fill: rgb(181, 179, 179);"/>
  <path d="M 47.44984 86.65456 L 51.85963 95.59305 C 52.08867 96.09896 52.21645 96.08984 52.25008 96.08883 C 52.29127 96.08756 52.75079 95.08955 52.76837 95.05227 C 52.77667 95.03469 53.14146 94.39729 53.2867 94.08974 C 53.77631 93.05291 53.80083 93.13602 53.80499 93.12724 C 53.81769 93.10033 55.11381 90.3084 55.21179 90.09161 C 55.36336 89.75636 56.6801 87.15663 56.69267 87.13001 C 57.96899 84.42734 58.10994 84.12225 58.09951 84.09438 C 57.97862 83.77106 56.12504 83.92075 56.0016 84.02033 C 55.85654 84.13741 54.26836 87.48865 54.12584 87.7717 C 54.11751 87.78827 53.36317 89.09358 53.16327 89.62269 C 53.06382 89.88595 52.67381 90.52761 52.66966 90.53584 C 52.45551 90.96114 52.37543 91.39722 52.20072 91.39964 C 52.01433 91.40225 50.55777 88.15675 50.32496 87.6483 C 50.30962 87.61485 48.60517 84.01276 48.47385 83.9463 C 48.45683 83.93767 46.44637 83.81218 46.3266 83.92164 C 46.06486 84.16081 46.45695 84.39413 47.44984 86.65456 Z M 54.07651 95.7433 C 53.9932 95.9087 53.03993 97.55054 53.03993 97.96449 L 53.03897 108.9964 L 53.04147 113.044 C 53.04843 113.153 53.27747 113.118 57.13696 113.118 C 57.79455 113.118 61.13522 113.1506 61.13522 113.0439 L 61.13522 100.3831 C 61.13522 99.95435 63.03456 96.27166 63.65279 94.9042 C 64.02592 94.07883 66.22233 89.54784 66.24429 89.4993 C 66.84042 88.18066 67.41152 86.92358 67.50304 86.75982 C 67.50735 86.75212 67.94418 85.87962 67.94728 85.87136 C 68.21368 85.16402 68.79418 84.21162 68.76178 84.09439 C 68.66357 83.73882 68.63628 83.92164 64.61535 83.92164 C 59.68108 83.92164 59.98776 83.90324 59.95059 83.92164 C 59.7534 84.01924 59.45425 84.90343 58.44505 86.85855 C 58.10754 87.5124 57.07325 89.595 56.9642 89.82015 C 56.73443 90.2946 54.10284 95.69097 54.07651 95.7433 Z M 93.04808 113.044 C 93.12218 113.159 94.81056 113.1549 94.97318 113.044 C 95.09917 112.958 95.66579 111.6942 96.00978 110.8228 C 96.04158 110.7423 96.47269 110.1801 98.15698 106.4544 C 98.30069 106.1368 99.18268 104.252 99.19368 104.2332 C 99.28558 104.0754 100.2291 102.2525 100.3043 102.0861 C 100.3133 102.0662 101.2756 99.86421 101.341 99.86421 L 107.1657 99.86603 L 107.2382 99.9389 L 107.2406 112.9699 C 107.2412 112.9786 107.2491 112.9606 107.3385 113.044 C 107.4573 113.1549 109.1426 113.1649 109.2636 113.044 C 109.313 112.9946 109.3377 113.0118 109.3377 112.9699 L 109.3363 98.13728 C 109.3335 98.11623 109.2653 97.86764 109.2636 97.86581 C 109.0965 97.68677 102.4518 97.81503 102.3775 97.71774 C 102.3062 97.6244 102.4683 97.54722 103.192 96.0148 C 104.0518 94.19411 103.9384 94.45602 104.0065 94.31188 C 104.6084 93.03738 103.9159 94.54748 105.6355 90.90607 C 105.6498 90.87571 107.2475 87.52924 107.2644 87.50022 C 107.2729 87.48573 107.2495 87.63206 108.0789 85.79731 C 108.8115 84.17661 108.9087 84.14235 108.8934 84.09441 C 108.8128 83.84216 107.3159 83.76783 107.21 83.84084 L 106.8134 84.13461 C 106.7184 84.21118 106.4683 85.16035 105.6848 86.63642 C 104.8848 88.14349 103.5707 91.0892 103.3895 91.44901 C 100.8849 96.4227 100.1328 98.18736 99.90936 98.63087 C 99.59038 99.26446 96.48718 105.6831 96.42938 105.8127 C 95.84518 107.1228 94.69186 109.3592 94.67697 109.3913 C 94.66947 109.4075 93.85278 111.1851 93.83788 111.2176 C 92.98369 113.083 92.98098 112.9399 93.04808 113.044 Z M 110.6453 84.41524 L 110.6453 112.6244 C 110.6453 112.8946 110.6113 112.9198 110.7445 113.044 C 110.8877 113.1776 110.7088 113.118 113.336 113.118 C 114.5799 113.118 115.1131 113.118 116.0016 113.118 C 117.4735 113.118 118.5225 113.1576 118.5482 113.0473 L 118.594 112.5273 L 118.5935 84.39057 C 118.5935 84.10021 118.6175 84.12589 118.519 84.02036 C 118.3985 83.89117 118.5203 83.92164 114.5454 83.92164 C 110.4903 83.92164 110.8917 83.85629 110.7445 83.99568 C 110.6178 84.11555 110.6453 84.12015 110.6453 84.41524 Z M 15.12972 84.41524 L 15.12972 112.6244 C 15.12972 112.9768 15.1163 112.9394 15.22836 113.0439 C 15.33424 113.1427 14.99236 113.118 19.30075 113.118 C 22.25114 113.118 23.19855 113.1445 23.29909 113.0439 C 23.37062 112.9724 23.37337 112.9736 23.37337 112.9699 L 23.37261 84.21778 C 23.37235 84.21593 23.30037 84.02172 23.29909 84.02036 C 23.17634 83.88877 23.03035 83.92164 19.25137 83.92164 C 14.99518 83.92164 15.33297 83.89809 15.22836 83.99568 C 15.09529 84.11981 15.12972 84.14706 15.12972 84.41524 Z M 34.23291 84.26717 L 34.23291 97.7424 C 34.23291 97.76982 34.43869 97.76707 31.1477 97.76707 C 25.32944 97.76707 25.12193 97.72932 25.0021 97.8411 C 24.86763 97.96655 24.90345 98.00206 24.90345 98.26067 L 24.90345 112.9946 L 24.92806 113.0439 C 25.02996 113.1672 26.82042 113.1508 26.92722 113.0439 C 27.02452 112.9466 27.00095 112.6771 27.00126 112.6737 C 27.00655 112.6167 27.00126 112.187 27.00126 106.2323 C 27.00126 106.0151 27.00126 104.712 27.00126 102.9745 C 27.00126 102.7574 27.00126 102.866 27.00126 101.3457 C 27.00126 100.001 26.91404 99.86445 26.92722 99.86445 L 34.23286 99.86588 C 34.34666 99.87315 34.23286 99.65208 34.23286 103.0733 C 34.23286 103.4583 34.23286 103.2806 34.23286 106.405 C 34.23286 106.7901 34.23286 106.6123 34.23286 109.7368 C 34.23286 111.4397 34.23286 109.7898 34.23286 111.4397 C 34.23286 112.8709 34.19571 112.8081 34.33157 112.9699 C 34.48575 113.1535 34.14035 113.118 38.18182 113.118 C 40.6776 113.118 42.11192 113.15 42.1358 113.0473 L 42.18027 112.5274 L 42.18005 84.16843 C 42.18005 84.11694 42.22655 84.14943 42.10612 84.02036 C 41.98562 83.89118 41.84235 83.92164 38.13247 83.92164 C 34.0751 83.92164 34.48376 83.88847 34.33157 84.06971 C 34.21107 84.21321 34.23291 84.12296 34.23291 84.26717 Z M 72.88317 84.41522 L 72.88317 112.6244 C 72.88317 112.6639 72.79837 112.7468 72.88357 112.9205 C 72.89346 112.9407 72.98128 113.043 72.98228 113.0439 C 73.10738 113.1607 73.30678 113.118 76.83258 113.118 C 81.01848 113.118 80.72798 113.1376 80.75677 113.118 C 80.80868 113.0826 80.83087 113.0579 80.83087 113.0439 L 80.83018 84.06971 L 80.75677 84.02033 C 80.63858 83.89358 80.84476 83.92163 76.85717 83.92163 C 72.72317 83.92163 73.08306 83.90166 72.98228 83.99567 C 72.84918 84.11983 72.88317 84.15465 72.88317 84.41522 Z M 82.36137 98.11259 L 82.36137 112.6244 C 82.36137 112.9232 82.34499 112.9368 82.45988 113.0439 C 82.55368 113.1315 82.22397 113.118 87.27267 113.118 C 91.76466 113.118 92.05018 113.1421 92.08548 113.118 C 92.14418 113.0779 92.27948 111.3268 92.08548 111.1189 C 91.92308 110.9448 89.28038 111.0202 88.25988 111.0202 C 87.27599 111.0202 86.57439 111.0202 86.33479 111.0202 C 84.25529 111.0202 84.38636 111.0375 84.38527 111.0202 L 84.38447 98.01388 C 84.38447 97.9639 84.43128 97.99475 84.31087 97.86579 C 84.14256 97.6853 82.55008 97.75692 82.45988 97.8411 C 82.37067 97.92429 82.36137 97.95985 82.36137 98.11259 Z" fill-opacity="1" stroke-opacity="1" stroke-width="0.1" stroke-linecap="round" stroke-linejoin="round" style="fill: rgb(181, 179, 179); stroke: rgb(181, 179, 179);"/>
</svg>