<svg version="1.1" id="Layer_1" xmlns="http://www.w3.org/2000/svg" xmlns:xlink="http://www.w3.org/1999/xlink" x="0px" y="0px" viewBox="0 0 253.2 54.9" style="enable-background:new 0 0 253.2 54.9;" xml:space="preserve">
 <style type="text/css">
  .st0{fill:#58595B;}
 </style>
 <g>
  <path class="st0" d="M174.5,0c-4.3,0-7.7,4.4-7.7,9.9c0,3.5,1.4,6.5,3.5,8.3c1.2,1,1.9,2.5,1.9,4.3L171.8,53c0,0,0,0.1,0,0.1v0.6
		c0,0.7,0.6,1.3,1.3,1.3h2.4c0.7,0,1.3-0.6,1.3-1.3v-0.6c0-0.1,0-0.1,0-0.1c-0.1-4.7-0.5-29.5-0.5-30.3c0-1.8,1-3.4,2.6-4.5
		c2.1-1.8,3.4-4.8,3.4-8.2C182.2,4.4,178.8,0,174.5,0 M179.6,13.3L179.6,13.3c-0.3,0.7-1.6,3.9-5.2,3.9c-3.7,0-4.9-3.5-5-3.9
		c0-0.1,0-0.2-0.1-0.2l0-0.3h1l0,0.2c0,0.1,0.9,3.2,4.1,3.2c3.3,0,4.3-3.1,4.3-3.2l0.1-0.2l0.4,0l0.6,0l0,0.3
		C179.7,13.1,179.6,13.2,179.6,13.3">
  </path>
  <path class="st0" d="M0.3,52.2h2.5V26H0v-0.6h6.3v3.9h0.1c0.9-2.4,2.7-4.2,6-4.2c5,0,7.5,3.5,7.5,9.1c0,6.1-3.2,9.7-8.1,9.7
		c-2.9,0-4.5-1.6-5.3-3.3H6.4v11.6h2.5v0.6H0.3V52.2z M11.4,43.2c3.3,0,4.6-2.8,4.6-9.1c0-6.2-1.4-8.3-4.3-8.3
		c-3.3,0-5.3,3.2-5.3,6.7v4.7C6.4,40.1,7.9,43.2,11.4,43.2">
  </path>
  <path class="st0" d="M32.2,33.6h0.4v-4.3c0-2.4-0.6-3.7-3.3-3.7c-2.5,0-3.8,0.9-3.8,3.1c0,1.3,0.6,2.5,1.9,2.2v0.3
		c0,0-0.7,0.2-1.6,0.2c-1.8,0-3.1-1-3.1-2.6c0-2.2,2.3-3.7,6.6-3.7c4.9,0,6.9,2,6.9,5.5v10.6c0,1.2,0.2,1.8,1.1,1.8
		c1.4,0,1.9-1.3,1.9-2.8h0.6c0,2.4-1.3,3.6-3.2,3.6c-2.2,0-3.4-1.3-3.6-3.3h-0.1c-0.8,1.6-2.7,3.3-5.7,3.3c-2.6,0-5.5-1.2-5.5-4.5
		C21.8,35,27.3,33.6,32.2,33.6 M28,43.2c0.9,0,1.8-0.4,2.6-0.9c1.1-0.8,2-2,2-2.9v-5.2h-0.7c-1.7,0-3.2,0.3-4.2,0.9
		c-1.3,0.8-2.1,2.1-2.1,4.4C25.6,42.1,26.5,43.2,28,43.2">
  </path>
  <path class="st0" d="M39.6,43h2.9V26h-3.2v-0.6h6.7v4.3H46c0,0,1.2-4.5,6.5-4.5c3.6,0,5.5,1.4,5.8,4.5h0.1c0,0,1.2-4.5,6.5-4.5
		c4,0,5.8,1.7,5.8,5.5V43h2.8v0.6h-9V43h2.6V29.9c0-3-0.7-4.1-2.9-4.1c-4.4,0-5.8,4.5-5.9,6.7V43h2.8v0.6h-9V43h2.6V29.9
		c0-3-0.7-4.1-2.9-4.1c-4.5,0-5.9,4.8-5.9,6.9V43h2.5v0.6h-9V43z">
  </path>
  <path class="st0" d="M73.7,52.2h2.5V26h-2.8v-0.6h6.3v3.9h0.1c0.9-2.4,2.7-4.2,6-4.2c5,0,7.5,3.5,7.5,9.1c0,6.1-3.2,9.7-8.1,9.7
		c-2.9,0-4.5-1.6-5.3-3.3h-0.1v11.6h2.5v0.6h-8.6V52.2z M84.7,43.2c3.3,0,4.6-2.8,4.6-9.1c0-6.2-1.4-8.3-4.3-8.3
		c-3.3,0-5.3,3.2-5.3,6.7v4.7C79.7,40.1,81.2,43.2,84.7,43.2">
  </path>
  <path class="st0" d="M103.6,25.1c4.6,0,7.2,2.3,7.2,7.3V34H99.2v0.6c0,6.9,1.6,8.7,4.8,8.7c2.9,0,5.7-1.9,5.7-4.9h0.6
		c0,2.3-1.5,4.2-3.8,5c-0.9,0.3-1.7,0.5-2.9,0.5c-5,0-8.2-2.7-8.2-9.4C95.4,27.6,98.7,25.1,103.6,25.1 M107.2,33.4v-1.6
		c0-3.8-0.8-6.2-3.6-6.2c-3,0-4.3,2.7-4.4,7.8H107.2z">
  </path>
  <path class="st0" d="M112.1,25.4h6.3v4.3h0.1c0.7-2.1,2.3-4.6,5.2-4.6c2.1,0,3.8,1.4,3.8,3.7c0,2-1.3,3.2-2.9,3.2
		c-0.4,0-0.9,0-1.4-0.2v-0.3c1.2,0.2,1.4-1.3,1.4-2.4c0-2-0.6-3.1-1.9-3.1c-1.1,0-2.2,1-3,2.2c-0.9,1.5-1.4,3.2-1.4,4.5V43h3.2v0.6
		h-9.6V43h2.8V26h-2.8V25.4z">
  </path>
  <path class="st0" d="M136.7,25.1c4.6,0,7.2,2.3,7.2,7.3V34h-11.6v0.6c0,6.9,1.6,8.7,4.8,8.7c2.9,0,5.7-1.9,5.7-4.9h0.6
		c0,2.3-1.5,4.2-3.8,5c-0.9,0.3-1.7,0.5-2.9,0.5c-5,0-8.2-2.7-8.2-9.4C128.5,27.6,131.8,25.1,136.7,25.1 M140.3,33.4v-1.6
		c0-3.8-0.8-6.2-3.6-6.2c-3,0-4.3,2.7-4.4,7.8H140.3z">
  </path>
  <path class="st0" d="M154,25.1c2.9,0,4.5,1.6,5.3,3.3h0.1V15.1h-2.8v-0.6h6.4V43h2.8v0.6h-6.3v-3.9h-0.1c-0.9,2.4-2.7,4.2-6,4.2
		c-5,0-7.5-3.5-7.5-9.1C146,28.7,149.2,25.1,154,25.1 M154.1,43.2c3.3,0,5.3-3.2,5.3-6.7v-4.7c0-3-1.5-6-5-6c-3.3,0-4.6,2.8-4.6,9.1
		C149.8,41,151.2,43.2,154.1,43.2">
  </path>
  <path class="st0" d="M191.5,25.2c3.5,0,6.2,1.6,6.2,3.9c0,0.9-0.6,2.6-2.8,2.6c-0.4,0-1.1-0.1-1.6-0.2v-0.3c1.3,0.3,1.8-1,1.8-2.3
		c0-1.7-1.3-3.1-3.5-3.1c-3.2,0-4.5,2.3-4.5,8.9c0,6.4,1.3,8.7,4.5,8.7c1.3,0,2.7-0.3,3.8-1.4c0.9-0.9,1.5-2.1,1.5-3.6h0.6
		c0,1.5-0.6,3-1.7,4c-1.1,1-2.6,1.6-4.7,1.6c-4.4,0-7.8-2.8-7.8-9.2C183.3,28.4,186.6,25.2,191.5,25.2">
  </path>
  <path class="st0" d="M198.4,43.1h2.8V15.2h-2.8v-0.6h6.4v15h0.1c0,0,1.3-4.4,6.4-4.4c4,0,5.8,1.7,5.8,5.5v12.4h2.8v0.6h-9v-0.6h2.6
		V30c0-3-0.7-4.1-2.9-4.1c-4.5,0-5.9,4.7-5.9,6.8v10.3h2.6v0.6h-9V43.1z">
  </path>
  <path class="st0" d="M229.1,25.2c4.6,0,7.2,2.3,7.2,7.3v1.6h-11.6v0.6c0,6.9,1.6,8.7,4.8,8.7c2.9,0,5.7-1.9,5.7-4.9h0.6
		c0,2.3-1.5,4.2-3.8,5c-0.9,0.3-1.7,0.5-2.9,0.5c-5,0-8.2-2.7-8.2-9.4C220.9,27.7,224.2,25.2,229.1,25.2 M232.7,33.5v-1.6
		c0-3.8-0.8-6.2-3.6-6.2c-3,0-4.3,2.7-4.4,7.8H232.7z">
  </path>
  <path class="st0" d="M237.6,43.1h2.8v-17h-2.8v-0.6h2.8v-3.6c0-4.6,2.6-7.7,7.4-7.7c3,0,5.4,1.5,5.4,3.5c0,1.4-1.1,2.6-3,2.6
		c-0.4,0-1-0.1-1.6-0.2v-0.3c1.6,0.3,2.1-1.3,2.1-2.3c0-1.5-1.1-2.8-2.8-2.8c-2.8,0-3.8,1.8-3.8,5.6v5.2h4.7v0.6H244v17h3.2v0.6
		h-9.6V43.1z">
  </path>
 </g>
</svg>